<svg width="17" height="17" viewBox="0 0 17 17" fill="none" xmlns="http://www.w3.org/2000/svg">
<g id="bi:arrow-up-short">
<path id="Vector" fill-rule="evenodd" clip-rule="evenodd" d="M8.49969 12.75C8.64059 12.75 8.77572 12.694 8.87535 12.5944C8.97497 12.4947 9.03094 12.3596 9.03094 12.2187V6.06366L11.3111 8.34485C11.3605 8.39424 11.4191 8.43342 11.4836 8.46015C11.5482 8.48689 11.6173 8.50064 11.6872 8.50064C11.757 8.50064 11.8262 8.48689 11.8908 8.46015C11.9553 8.43342 12.0139 8.39424 12.0633 8.34485C12.1127 8.29545 12.1519 8.23682 12.1786 8.17228C12.2054 8.10775 12.2191 8.03858 12.2191 7.96872C12.2191 7.89887 12.2054 7.8297 12.1786 7.76517C12.1519 7.70063 12.1127 7.64199 12.0633 7.5926L8.87582 4.4051C8.82647 4.35562 8.76785 4.31637 8.70331 4.28959C8.63876 4.26281 8.56957 4.24902 8.49969 4.24902C8.42982 4.24902 8.36063 4.26281 8.29608 4.28959C8.23154 4.31637 8.17292 4.35562 8.12357 4.4051L4.93607 7.5926C4.83632 7.69235 4.78027 7.82765 4.78027 7.96872C4.78027 8.1098 4.83632 8.24509 4.93607 8.34485C5.03582 8.4446 5.17112 8.50064 5.31219 8.50064C5.45327 8.50064 5.58857 8.4446 5.68832 8.34485L7.96844 6.06366V12.2187C7.96844 12.3596 8.02442 12.4947 8.12404 12.5944C8.22367 12.694 8.3588 12.75 8.49969 12.75Z" fill="black"/>
</g>
</svg>
