<svg width="16" height="13" viewBox="0 0 16 13" fill="none" xmlns="http://www.w3.org/2000/svg">
<g id="England" clip-path="url(#clip0_4295_2)">
<rect width="16" height="12" transform="translate(0 0.5)" fill="#F5F8FB"/>
<g id="Group 6572">
<path id="Vector" d="M16 12.5H0V1.16655H16V12.5Z" fill="#F0F0F0"/>
<path id="Vector_2" d="M9 12.5H7V7.89586H0V5.77086H7V1.16671H9V5.77086H16V7.89586H9V12.5Z" fill="#D80027"/>
<g id="Group">
<path id="Vector_3" d="M12.3057 4.86328L15.9999 2.68263V4.86328H12.3057Z" fill="#0052B4"/>
<path id="Vector_4" d="M9.73926 4.86328L16.0001 1.16764V2.21268L11.5097 4.86328H9.73926Z" fill="#0052B4"/>
<path id="Vector_5" d="M14.3324 1.16838L9.73926 3.87988V1.16838H14.3324Z" fill="#0052B4"/>
</g>
<path id="Vector_6" d="M9.73926 4.86328L16.0001 1.16764V2.21268L11.5097 4.86328H9.73926Z" fill="#F0F0F0"/>
<path id="Vector_7" d="M9.73926 4.86328L16.0001 1.16764V2.21268L11.5097 4.86328H9.73926Z" fill="#D80027"/>
<g id="Group_2">
<path id="Vector_8" d="M2.82316 4.86328L0 3.19682V4.86328H2.82316Z" fill="#0052B4"/>
<path id="Vector_9" d="M6.26067 4.39355V1.16784H0.796387L6.26067 4.39355Z" fill="#0052B4"/>
</g>
<path id="Vector_10" d="M4.49041 4.86328L0 2.21268V1.16764L6.26088 4.86328H4.49041Z" fill="#D80027"/>
<g id="Group_3">
<path id="Vector_11" d="M3.69422 8.80373L0 10.9844V8.80373H3.69422Z" fill="#0052B4"/>
<path id="Vector_12" d="M6.26088 8.80436L0 12.5V11.455L4.49041 8.80436H6.26088Z" fill="#0052B4"/>
<path id="Vector_13" d="M1.66748 12.5L6.26067 9.7885V12.5H1.66748Z" fill="#0052B4"/>
</g>
<path id="Vector_14" d="M6.26088 8.80436L0 12.5V11.455L4.49041 8.80436H6.26088Z" fill="#F0F0F0"/>
<path id="Vector_15" d="M6.26088 8.80436L0 12.5V11.455L4.49041 8.80436H6.26088Z" fill="#D80027"/>
<g id="Group_4">
<path id="Vector_16" d="M13.1768 8.8057L15.9999 10.4722V8.8057H13.1768Z" fill="#0052B4"/>
<path id="Vector_17" d="M9.73926 9.27429V12.5H15.2035L9.73926 9.27429Z" fill="#0052B4"/>
</g>
<path id="Vector_18" d="M11.5097 8.80436L16.0001 11.455V12.5L9.73926 8.80436H11.5097Z" fill="#D80027"/>
</g>
</g>
<defs>
<clipPath id="clip0_4295_2">
<rect width="16" height="12" fill="white" transform="translate(0 0.5)"/>
</clipPath>
</defs>
</svg>
