<svg width="32" height="32" viewBox="0 0 32 32" fill="none" xmlns="http://www.w3.org/2000/svg">
<g id="Group 1086591">
<circle id="Ellipse 161" cx="16" cy="16" r="16" fill="#FF831A"/>
<path id="i" d="M17.4432 8.4616C17.4264 8.8816 17.2668 9.226 16.9644 9.4948C16.6788 9.7468 16.3344 9.8728 15.9312 9.8728C15.528 9.8728 15.1836 9.73 14.898 9.4444C14.6124 9.1588 14.4696 8.8144 14.4696 8.4112C14.4696 7.9744 14.646 7.63 14.9988 7.378C15.3516 7.126 15.7128 7 16.0824 7C16.5192 7 16.8552 7.1512 17.0904 7.4536C17.3256 7.7392 17.4432 8.0752 17.4432 8.4616ZM17.0904 14.3332L16.8888 19.6252C16.8888 20.5492 16.9644 21.2716 17.1156 21.7924C17.2668 22.3132 17.5608 22.5736 17.9976 22.5736C18.4848 22.5736 18.9048 22.4644 19.2576 22.246C19.6272 22.0108 19.98 21.742 20.316 21.4396L20.6436 21.6916V21.9688C20.358 22.3384 20.022 22.7164 19.6356 23.1028C19.266 23.4724 18.8628 23.7832 18.426 24.0352C18.006 24.2872 17.5608 24.4132 17.0904 24.4132C16.7376 24.4132 16.4016 24.346 16.0824 24.2116C15.78 24.094 15.5364 23.8336 15.3516 23.4304C15.1668 23.0272 15.0744 22.414 15.0744 21.5908L15.2256 16.0216C15.2256 15.3664 15.1584 14.8456 15.024 14.4592C14.9064 14.0728 14.6796 13.8796 14.3436 13.8796C14.0748 13.8796 13.7472 13.972 13.3608 14.1568C12.9744 14.3248 12.63 14.5012 12.3276 14.686L12 14.2324C12.5712 13.7788 13.176 13.3504 13.8144 12.9472C14.4696 12.544 15.0408 12.3424 15.528 12.3424C16.0992 12.3424 16.5024 12.5356 16.7376 12.922C16.9728 13.3084 17.0904 13.7788 17.0904 14.3332Z" fill="white"/>
</g>
</svg>
